<svg viewBox="0 0 4.2333332 4.2333335" xmlns="http://www.w3.org/2000/svg">
   <title>Codeberg logo</title>
   <g transform="translate(-44.867463,-75.990641)">
      <g transform="matrix(0.62731857,0,0,0.30231784,25.415003,63.342477)" />
      <path d="m 46.983886,76.122471 c -1.172544,0 -2.116423,0.944367 -2.116423,2.116911 -5.6e-5,0.397554 0.112002,0.787589 0.323326,1.124632 l 1.764533,-2.281439 c 0.01275,-0.01632 0.04434,-0.01632 0.05708,0 l 0.736954,0.952848 h -0.527804 l 0.01143,0.04204 h 0.549083 l 0.155695,0.200846 h -0.648209 l 0.01818,0.06591 h 0.680903 l 0.137012,0.176972 h -0.768612 l 0.02386,0.08511 h 0.810129 l 0.122481,0.157769 H 47.42501 l 0.02906,0.103797 h 0.939356 l 0.10743,0.138567 h -1.008381 l 0.03218,0.114695 h 1.064947 l 0.09912,0.128189 h -1.128265 l 0.03218,0.114694 h 1.184832 c 0.211323,-0.337043 0.323393,-0.727078 0.323326,-1.12463 1e-6,-1.172544 -0.944364,-2.116911 -2.116909,-2.116911 z m 0.644552,3.369732 0.03218,0.114695 h 0.939339 c 0.03063,-0.03616 0.06232,-0.07645 0.09055,-0.114695 z m 0.06799,0.242882 0.03166,0.114695 h 0.628487 c 0.04111,-0.03504 0.08566,-0.07553 0.125654,-0.114694 z m 0.06747,0.242883 0.03218,0.114176 h 0.212225 c 0.06271,-0.03599 0.120816,-0.07262 0.183679,-0.114176 z" />
   </g>
</svg>
